<svg width="50" height="50" viewBox="0 0 50 50" fill="none" xmlns="http://www.w3.org/2000/svg">
<g id="Frame">
<g id="Group">
<path id="Vector" d="M42.2654 23.7593L23.3113 2.6992C22.907 2.25272 22.3426 2 21.7445 2H9.10838C8.70156 2.00044 8.30351 2.11832 7.96206 2.33948C7.6206 2.56065 7.35025 2.87569 7.18349 3.24676C6.84652 4.00914 6.98552 4.89787 7.54151 5.51283L25.2278 25.1661L7.54151 44.8152C6.98552 45.4344 6.84231 46.3232 7.18349 47.0813C7.52466 47.8437 8.27861 48.3323 9.10838 48.3323H21.7445C22.3426 48.3323 22.907 48.0754 23.3113 47.6373L42.2654 26.5772C42.9857 25.7769 42.9857 24.5554 42.2654 23.7593Z" fill="#27B688"/>
</g>
</g>
</svg>
