<svg width="189" height="200" viewBox="0 0 189 200" fill="none" xmlns="http://www.w3.org/2000/svg">
<g id="doctor clip art">
<g id="Group">
<g id="Group_2">
<path id="Vector" d="M86.1246 205.931L92.7294 180.545L97.1015 152.692C85.718 153.01 74.3345 158.361 67.7148 167.624C61.1839 176.763 56.5482 195.208 54.2735 205.929H86.1246V205.931Z" fill="#8FCBE3"/>
<path id="Vector_2" d="M55.8581 205.931C59.2936 188.435 63.7864 169.528 79.4187 159.336C83.978 156.363 89.1781 154.461 94.6345 154.175C95.7558 154.116 95.7632 152.365 94.6345 152.424C84.8652 152.939 75.9857 158.235 69.7678 165.613C62.9534 173.699 59.163 183.794 56.6468 193.941C55.6635 197.91 54.8526 201.918 54.0739 205.931H55.8581Z" fill="#1A4A59"/>
<path id="Vector_3" d="M154.024 205.931H185.752C183.699 195.779 178.861 175.132 171.825 165.286C165.205 156.023 153.822 150.672 142.438 150.354L146.81 178.207L154.024 205.934V205.931Z" fill="#8FCBE3"/>
<path id="Vector_4" d="M144.903 151.835C150.359 152.123 155.559 154.025 160.119 156.996C176.451 167.646 180.623 187.805 184.135 205.931H185.917C184.993 201.137 184.064 196.341 182.891 191.601C180.374 181.454 176.586 171.358 169.77 163.273C163.549 155.895 154.67 150.596 144.903 150.083C143.774 150.024 143.781 151.776 144.903 151.835Z" fill="#1A4A59"/>
<path id="Vector_5" d="M133.199 174.77H108.357L105.17 136.3H134.098L133.199 174.77Z" fill="white"/>
<path id="Vector_6" d="M163.31 205.931C162.943 199.526 162.701 194.254 162.669 191.022C162.576 181.567 162.1 173.994 160.092 167.764C157.975 161.201 154.182 156.363 148.153 152.537C145.489 150.847 137.761 148.529 133.845 147.184C133.845 147.184 133.132 171.38 120.014 171.38C106.895 171.38 106.173 145.829 106.173 145.829C83.458 153.621 80.3774 168.02 79.3842 190.165L79.3472 190.96C79.1821 194.616 78.8839 199.834 78.5044 205.931H163.308H163.31Z" fill="#27B688"/>
<g id="Group_3">
<path id="Vector_7" d="M72.7178 113.69C61.6177 115.491 53.0486 104.223 52.536 95.3268C52.3586 91.0501 56.775 88.5201 61.6547 88.3402C71.7394 87.8229 79.261 96.7285 77.1908 103.203C76.6166 107.396 75.3548 113.113 72.7202 113.69H72.7178Z" fill="white"/>
<path id="Vector_8" d="M163.305 113.69C174.405 115.491 182.974 104.223 183.487 95.3268C183.664 91.0501 179.248 88.5201 174.368 88.3402C164.284 87.8229 156.762 96.7285 158.832 103.203C159.406 107.396 160.668 113.113 163.303 113.69H163.305Z" fill="white"/>
<path id="Vector_9" d="M170.992 80.5063C170.992 112.579 159.291 138.579 118.333 138.579C77.3757 138.579 65.6743 112.579 65.6743 80.5063C65.6743 67.7181 65.9577 54.5408 72.7646 44.9454C83.0317 30.4771 99.6424 21.0764 118.387 21.0764C137.132 21.0764 152.06 29.5509 162.406 42.7898C170.181 52.7424 170.992 66.7401 170.992 80.5038V80.5063Z" fill="white"/>
<g id="Group_4">
<g id="Group_5">
<g id="Group_6">
<path id="Vector_10" d="M147.942 83.1951C148.023 80.4656 146.305 78.2001 144.105 78.1348C141.905 78.0695 140.056 80.2293 139.975 82.9587C139.894 85.6882 141.612 87.9537 143.812 88.019C146.011 88.0843 147.861 85.9245 147.942 83.1951Z" fill="#1A4A59"/>
<path id="Vector_11" d="M100.48 83.1964C100.561 80.4669 98.8429 78.2013 96.643 78.1361C94.443 78.0708 92.5939 80.2306 92.5129 82.96C92.4318 85.6895 94.1495 87.955 96.3495 88.0203C98.5494 88.0855 100.399 85.9258 100.48 83.1964Z" fill="#1A4A59"/>
<path id="Vector_12" d="M150.273 75.0988C149.78 75.2072 149.228 74.5889 148.447 73.8548C148.346 73.7636 148.245 73.6675 148.146 73.5665C148.045 73.468 147.919 73.3768 147.808 73.2758C147.594 73.0664 147.323 72.8817 147.069 72.6698C146.527 72.2756 145.923 71.8766 145.25 71.5144C144.568 71.1695 143.892 70.9084 143.257 70.6916C142.936 70.6078 142.631 70.4921 142.335 70.4379C142.187 70.4058 142.042 70.3541 141.901 70.3295C141.761 70.3073 141.625 70.2802 141.492 70.2506C140.442 70.0363 139.619 69.9427 139.424 69.4771C139.333 69.2529 139.432 68.977 139.732 68.6567C139.806 68.5779 139.895 68.4942 139.994 68.4104C140.095 68.3316 140.21 68.2626 140.339 68.1887C140.595 68.0482 140.896 67.8783 141.25 67.7822C141.425 67.728 141.615 67.6763 141.812 67.6245C142.009 67.5777 142.217 67.5605 142.433 67.5309C142.87 67.4644 143.333 67.4866 143.826 67.5087C144.799 67.6048 145.857 67.8857 146.865 68.3981C147.865 68.9253 148.706 69.6274 149.344 70.3689C149.647 70.7581 149.93 71.1227 150.128 71.5169C150.229 71.7115 150.335 71.8889 150.411 72.0786C150.485 72.2683 150.549 72.453 150.606 72.6279C150.734 72.9704 150.768 73.3153 150.8 73.606C150.813 73.7538 150.825 73.8868 150.818 74.0149C150.805 74.1455 150.788 74.2637 150.766 74.3696C150.677 74.7983 150.507 75.0373 150.273 75.0939V75.0988Z" fill="#1A4A59"/>
<path id="Vector_13" d="M101.225 71.9776C101.003 72.4259 100.194 72.4875 99.1347 72.5713C99.0016 72.5836 98.8636 72.5934 98.7206 72.5984C98.5802 72.6058 98.4298 72.6329 98.2795 72.6427C97.9813 72.6575 97.6634 72.7141 97.3356 72.7437C96.68 72.8423 95.9777 72.963 95.2457 73.1428C94.5187 73.3374 93.8434 73.569 93.2224 73.8006C92.9217 73.9311 92.6161 74.0346 92.3475 74.1676C92.2119 74.2292 92.069 74.2809 91.9408 74.3401C91.8151 74.4041 91.6894 74.4608 91.5662 74.515C90.5977 74.9535 89.8608 75.291 89.4492 75.0028C89.2521 74.8623 89.1806 74.5815 89.2422 74.1676C89.2693 73.9582 89.3358 73.7217 89.4541 73.4729C89.57 73.2216 89.7104 72.9309 89.9199 72.66C90.021 72.5195 90.1319 72.3742 90.2502 72.2264C90.3709 72.0786 90.5114 71.9455 90.6568 71.8002C90.9402 71.5021 91.2877 71.2434 91.6599 70.97C92.4214 70.4576 93.3456 70.0141 94.3733 69.7431C95.4034 69.4845 96.4262 69.4278 97.3405 69.5091C97.7989 69.5682 98.2277 69.6274 98.6196 69.7505C98.8168 69.8097 99.0041 69.8565 99.1815 69.9279C99.3589 70.0018 99.5241 70.0733 99.6818 70.1472C99.9972 70.2827 100.877 70.9724 101.003 71.1424C101.257 71.475 101.328 71.7558 101.225 71.9726V71.9776Z" fill="#1A4A59"/>
</g>
<path id="Vector_14" d="M121.806 88.1161C122.353 87.2637 120.995 86.4779 120.453 87.3253C119.827 88.3009 120.43 89.168 120.263 90.1953C120.09 91.2423 118.962 92.107 117.909 91.9493C116.923 91.8015 116.497 93.3117 117.493 93.4595C118.856 93.6615 120.135 93.2008 121.019 92.1242C121.441 91.6118 121.722 91.0107 121.815 90.3554C121.909 89.6952 121.451 88.6728 121.808 88.1161H121.806Z" fill="#1A4A59"/>
</g>
<g id="Group_7">
<path id="Vector_15" d="M89.9401 112.489C96.6514 111.569 101.346 105.384 100.425 98.6755C99.5048 91.9668 93.3179 87.2742 86.6065 88.1944C79.8951 89.1146 75.2007 95.299 76.1213 102.008C77.0418 108.716 83.2287 113.409 89.9401 112.489Z" fill="#F2C4BD"/>
<g id="Group_8">
<path id="Vector_16" d="M84.8357 96.2555C84.153 97.6326 83.4704 99.0097 82.7852 100.387C82.6916 100.579 82.6324 100.754 82.6793 100.971C82.7187 101.155 82.8518 101.36 83.0169 101.458C83.3471 101.651 83.8967 101.614 84.089 101.224L86.1394 97.0931C86.2331 96.9009 86.2922 96.726 86.2454 96.5092C86.206 96.3244 86.0729 96.12 85.9077 96.0214C85.5775 95.8293 85.0279 95.8662 84.8357 96.2555Z" fill="#E09184"/>
<path id="Vector_17" d="M91.167 94.1738C89.9816 97.0463 88.7961 99.9212 87.6132 102.794C87.453 103.18 87.7339 103.648 88.111 103.772C88.5349 103.91 88.9292 103.663 89.0894 103.274C90.2748 100.402 91.4603 97.5267 92.6432 94.6542C92.8034 94.2674 92.5225 93.7994 92.1454 93.6762C91.7215 93.5382 91.3272 93.7846 91.167 94.1738Z" fill="#E09184"/>
</g>
</g>
<g id="Group_9">
<path id="Vector_18" d="M148.765 113.917C155.538 113.795 160.93 108.208 160.808 101.438C160.686 94.6672 155.097 89.2773 148.324 89.399C141.551 89.5208 136.159 95.108 136.281 101.878C136.402 108.649 141.992 114.039 148.765 113.917Z" fill="#F2C4BD"/>
<g id="Group_10">
<path id="Vector_19" d="M145.911 97.0044C145.065 99.1526 144.223 101.301 143.377 103.449C143.224 103.838 143.493 104.301 143.875 104.427C144.294 104.562 144.698 104.321 144.854 103.929C145.699 101.781 146.544 99.633 147.387 97.4848C147.54 97.0956 147.271 96.6324 146.889 96.5068C146.47 96.3713 146.066 96.6127 145.911 97.0044Z" fill="#E09184"/>
<path id="Vector_20" d="M151.833 97.911C151.244 99.3497 150.657 100.788 150.068 102.227C149.916 102.604 150.182 103.097 150.566 103.205C150.995 103.326 151.379 103.109 151.545 102.707C152.134 101.269 152.72 99.8301 153.309 98.3914C153.462 98.0145 153.196 97.5218 152.811 97.4134C152.383 97.2927 151.998 97.5095 151.833 97.911Z" fill="#E09184"/>
</g>
</g>
<path id="Vector_21" d="M106.183 99.0886C112.046 100.641 118.225 100.818 124.238 100.217C126.037 100.037 127.826 99.7882 129.608 99.4803C130.057 99.4039 130.308 98.8521 130.197 98.4456C130.067 97.9726 129.611 97.7804 129.162 97.8568C123.321 98.8644 117.271 99.2314 111.383 98.416C109.784 98.1943 108.197 97.8765 106.634 97.4626C105.584 97.1843 105.138 98.8077 106.186 99.0861L106.183 99.0886Z" fill="#1A4A59"/>
</g>
<g id="Group_11">
<path id="Vector_22" d="M178.1 47.6133C180.212 49.3624 181.865 51.6486 182.733 54.2575C184.734 60.2783 182.348 67.4471 177.237 71.1695C175.61 77.853 173.306 84.369 170.368 90.5894C167.349 82.0287 164.333 73.468 161.314 64.9072C159.971 64.757 158.63 63.7371 157.903 62.5102C156.87 60.7685 156.585 58.6819 155.7 56.8614C153.484 52.3039 147.897 50.2912 142.83 50.4686C137.763 50.6459 132.938 52.5281 128.019 53.7524C123.099 54.9768 117.643 55.4818 113.175 53.0873C108.675 50.6755 106.016 44.3935 108.988 40.2154C97.6856 39.8138 86.1838 44.0659 78.147 52.06C68.0919 62.0619 63.8752 77.5131 67.3057 91.2521C59.8556 88.4979 54.6875 80.9645 54.1823 73.1329C46.2442 68.3808 42.8086 57.1989 46.8849 48.85C49.8842 42.7036 55.9444 38.7028 60.2104 33.357C65.6225 26.5724 68.0549 17.7186 73.8317 11.2395C81.6244 2.50387 94.5458 -0.400615 106.06 1.73279C117.081 3.77505 126.961 9.82545 135.607 16.9967C144.683 15.1343 154.721 17.5141 161.479 23.9217C166.953 29.1123 169.9 36.5891 170.09 44.1078C173.013 44.4674 175.822 45.7288 178.1 47.6158V47.6133Z" fill="white"/>
<path id="Vector_23" d="M126.515 52.8852C123.501 54.5383 119.834 54.7501 116.608 53.5972C113.517 52.4911 111.046 49.9758 109.821 46.9482C109.116 45.204 108.82 43.3366 108.968 41.4619C109.003 41.0086 108.556 40.6194 108.125 40.6194C107.64 40.6194 107.319 41.0062 107.282 41.4619C106.878 46.6107 108.473 49.0495 110.841 51.6806C113.424 54.5506 117.239 56.0903 121.086 56.0041C123.279 55.9548 125.441 55.3931 127.365 54.3387C128.317 53.8165 127.467 52.363 126.515 52.8852Z" fill="#1A4A59"/>
<path id="Vector_24" d="M154.021 52.496C149.504 49.7886 143.961 49.5767 139.501 46.7659C137.396 45.4405 135.604 43.5584 135.092 41.0579C135.001 40.612 134.473 40.0725 134.057 40.1858C133.593 40.3139 133.376 41.0579 133.468 41.5063C134.451 46.3052 139.212 48.9929 143.493 50.4143C148.055 51.9294 153.679 52.7448 156.488 57.1176C157.711 59.0219 158.327 61.4706 157.186 63.5547C156.666 64.5057 158.117 65.3556 158.64 64.4047C161.06 59.9876 157.893 54.8142 154.024 52.4935L154.021 52.496Z" fill="#1A4A59"/>
<path id="Vector_25" d="M122.89 45.4233C126.668 52.1635 134.981 54.6861 141.923 51.3628C142.995 50.8504 142.059 49.2565 140.989 49.7664C134.939 52.6635 127.745 50.3035 124.484 44.4896C123.903 43.4525 122.306 44.3837 122.887 45.4233H122.89Z" fill="#1A4A59"/>
<path id="Vector_26" d="M106.92 40.3657C93.5255 38.9418 79.8229 46.0884 73.2649 57.8345C72.6857 58.8741 74.2803 59.8078 74.8619 58.7682C81.1316 47.537 94.1392 40.8535 106.92 42.2133C108.101 42.339 108.093 40.4913 106.92 40.3657Z" fill="#1A4A59"/>
<path id="Vector_27" d="M176.931 69.8762C176.441 69.8762 176.13 70.2629 176.089 70.7187C175.598 76.1409 174.27 81.4867 172.195 86.5197C171.692 87.7391 171.135 88.9339 170.541 90.1115C169.607 82.4426 165.531 75.6433 163.32 68.3143C162.669 66.1563 162.186 63.9465 162.026 61.6948C161.994 61.2415 161.661 60.8523 161.183 60.8523C160.752 60.8523 160.308 61.2391 160.34 61.6948C160.924 69.9772 165.4 77.1682 167.731 84.98C168.375 87.1405 168.85 89.3503 168.996 91.6019C169.025 92.0552 169.36 92.4445 169.839 92.4445C170.191 92.4445 170.543 92.1882 170.647 91.8458C171.004 92.033 171.468 91.9936 171.707 91.5305C174.302 86.5172 176.15 81.1197 177.131 75.5595C177.412 73.9582 177.626 72.3421 177.772 70.7212C177.814 70.2679 177.355 69.8786 176.929 69.8786L176.931 69.8762Z" fill="#1A4A59"/>
<path id="Vector_28" d="M89.0303 34.6183C86.339 37.5277 84.7864 41.361 84.7001 45.3223C84.678 46.4062 86.3612 46.4062 86.3834 45.3223C86.4253 43.4106 87.8695 38.3505 90.2206 35.8082C90.955 35.0125 89.7671 33.8201 89.0303 34.6183Z" fill="#1A4A59"/>
<path id="Vector_29" d="M75.5002 53.7007C72.8262 53.3829 68.9988 50.1853 71.4337 45.7041C71.9513 44.7508 70.4972 43.9008 69.9797 44.8542C67.6754 49.0989 70.7609 54.8192 75.5002 55.3833C75.9536 55.4375 76.343 54.9571 76.343 54.5408C76.343 54.0407 75.9536 53.7525 75.5002 53.6983V53.7007Z" fill="#1A4A59"/>
<path id="Vector_30" d="M70.2138 62.2146C67.8775 64.8432 66.8892 68.2699 66.3249 71.6696C65.6521 75.7171 65.2947 79.8287 65.1961 83.928C65.1493 85.8767 65.169 87.8278 65.2479 89.7764C62.293 88.318 59.7742 85.9925 58.0442 83.1915C57.0017 81.5039 56.2451 79.6637 55.8311 77.7224C55.6166 76.7173 55.5279 75.6802 55.1361 74.7219C54.658 73.5542 53.7978 72.8619 52.7307 72.2485C51.7523 71.6844 50.9119 70.9995 50.2958 70.0363C49.6797 69.073 49.3174 67.9743 49.273 66.8312C49.2311 65.7522 47.5479 65.7448 47.5898 66.8312C47.676 69.1026 48.7284 71.3345 50.5028 72.7757C50.9735 73.1575 51.4738 73.4679 51.9963 73.771C52.4375 74.0247 52.9032 74.2858 53.2212 74.6972C53.857 75.5225 53.9285 76.7025 54.1108 77.6904C54.8822 81.8809 57.2087 85.7757 60.4199 88.5595C62.2585 90.1533 64.3607 91.3851 66.6576 92.1857C67.0864 92.336 67.5793 92.0158 67.6927 91.597C67.8208 91.1338 67.5349 90.7126 67.1037 90.5623C67.0568 90.545 67.01 90.5253 66.9607 90.5081C66.7759 86.6379 66.8301 82.7554 67.1406 78.8926C67.2984 76.9218 67.5177 74.9534 67.811 72.9974C68.0574 71.3469 68.3679 69.6963 68.8732 68.1024C69.4129 66.3952 70.2089 65.3383 71.4067 63.9908C72.1238 63.1828 70.9384 61.4041 70.2163 62.2146H70.2138Z" fill="#1A4A59"/>
<path id="Vector_31" d="M181.082 52.3852C179.817 50.3553 178.023 48.9141 176.029 47.6429C174.233 46.4974 172.2 45.4282 170.913 43.6742C170.147 42.6272 169.777 41.4127 169.501 40.1588C169.22 38.8925 168.978 37.6238 168.594 36.3822C167.867 34.0246 166.82 31.7557 165.496 29.674C162.79 25.4171 158.945 21.8819 154.401 19.6697C149.605 17.3343 144.131 16.3612 138.828 17.0091C138.145 17.0928 137.462 17.1963 136.787 17.3269C136.341 17.4131 136.085 17.9477 136.198 18.3616C136.326 18.8296 136.785 19.0366 137.233 18.9503C142.219 17.992 147.441 18.5734 152.136 20.4876C156.575 22.2983 160.459 25.4319 163.236 29.3316C164.597 31.2408 165.723 33.3274 166.531 35.5298C166.938 36.6409 167.271 37.779 167.524 38.9319C167.81 40.2327 168.02 41.563 168.525 42.8021C169.425 45.002 171.169 46.5072 173.114 47.7858C174.925 48.9782 176.889 50.003 178.385 51.6067C181.271 54.7009 182.144 59.3964 180.978 63.4094C180.835 63.8972 180.668 64.3801 180.463 64.8457C180.278 65.262 180.342 65.7498 180.766 65.9986C181.123 66.208 181.735 66.1144 181.917 65.6956C183.79 61.4583 183.544 56.3465 181.082 52.3852Z" fill="#1A4A59"/>
<path id="Vector_32" d="M134.318 10.8724C133.906 10.7591 133.369 11.0129 133.283 11.4612C132.869 13.5995 132.748 15.7822 132.955 17.9501C132.999 18.4034 133.31 18.7926 133.798 18.7926C134.219 18.7926 134.683 18.4059 134.641 17.9501C134.503 16.5114 134.414 14.4642 134.907 11.9071C134.993 11.4612 134.781 10.9981 134.318 10.8724Z" fill="#1A4A59"/>
<path id="Vector_33" d="M130.981 13.2226C130.831 13.0009 130.702 13.3507 130.592 13.1068C130.466 12.7841 130.377 11.8677 130.323 11.5252C130.303 11.3232 130.291 11.1188 130.298 10.9143C130.311 10.4733 129.901 10.0521 129.455 10.0718C128.987 10.0915 128.627 10.4413 128.613 10.9143C128.58 12.0204 128.903 13.1561 129.527 14.0725C129.65 14.2548 129.813 14.4002 130.03 14.4593C130.232 14.516 130.5 14.4889 130.678 14.3755C131.04 14.1415 131.245 13.6143 130.981 13.2251V13.2226Z" fill="#1A4A59"/>
<path id="Vector_34" d="M126.9 11.3553C121.022 5.85672 113.414 2.27476 105.446 1.16125C97.5796 0.0600619 89.6045 1.39775 82.524 4.99449C75.5741 8.52224 69.7653 14.075 65.9453 20.8645C63.7963 24.6854 62.1007 28.8167 59.338 32.2607C56.7035 35.547 53.4282 38.2298 50.5151 41.2525C49.0833 42.738 47.6982 44.3196 46.5966 46.0712C45.6478 47.5838 44.9059 49.2467 44.413 50.9637C43.4617 54.2845 43.4174 58.0931 45.2288 61.1405C45.6699 61.882 46.217 62.562 46.8381 63.1606C47.6193 63.912 48.8122 62.7221 48.0285 61.9707C45.6872 59.7191 45.1006 56.3785 45.6157 53.2696C46.2047 49.7196 47.9595 46.6403 50.3081 43.9599C53.0191 40.8658 56.2204 38.2544 58.9979 35.2268C60.4249 33.6698 61.7089 31.9996 62.813 30.1987C63.9565 28.3363 64.9349 26.3803 65.9379 24.4415C67.7469 20.9458 69.7579 17.6373 72.4319 14.7254C74.9358 11.9983 77.8291 9.65054 81.0083 7.75116C87.4505 3.90315 94.913 2.03334 102.41 2.52358C110.045 3.02367 117.601 5.89367 123.573 10.6901C124.307 11.2814 125.019 11.8997 125.707 12.5427C126.498 13.2818 127.691 12.0943 126.897 11.3528L126.9 11.3553Z" fill="#1A4A59"/>
</g>
<path id="Vector_35" d="M183.194 92.7425C181.873 90.2618 179.445 88.318 176.663 87.7884C176.217 87.7046 175.753 87.914 175.628 88.3772C175.514 88.7886 175.766 89.3281 176.217 89.4118C178.356 89.8183 180.214 91.1437 181.38 92.9716C182.647 94.9572 182.935 97.2409 182.267 99.4926C181.555 101.89 180.066 104.114 178.452 106.001C176.885 107.834 175.044 109.438 172.936 110.623C170.647 111.911 168.084 112.623 165.447 112.5C164.362 112.448 164.365 114.133 165.447 114.183C170.81 114.431 175.761 111.515 179.255 107.632C181.121 105.56 182.782 103.136 183.711 100.493C184.621 97.911 184.488 95.1666 183.194 92.7425Z" fill="#1A4A59"/>
<path id="Vector_36" d="M73.1934 113.103C72.947 112.682 72.4541 112.608 72.04 112.8C69.8146 113.84 67.2096 113.554 64.9866 112.667C62.6207 111.721 60.6393 109.972 58.8944 108.159C57.0929 106.289 55.2765 104.306 53.9186 102.084C52.5952 99.9163 51.7203 97.2655 52.3832 94.7281C52.955 92.5307 55.0843 90.3997 57.5192 90.7274C57.9702 90.7889 58.4237 90.619 58.5543 90.1386C58.6627 89.7469 58.4188 89.163 57.9653 89.1039C55.2938 88.7442 52.7209 90.2273 51.4344 92.5651C49.968 95.2282 50.3475 98.4825 51.533 101.168C52.7332 103.887 54.7836 106.171 56.7651 108.346C58.6948 110.465 60.8389 112.527 63.4389 113.806C66.3815 115.252 69.854 115.668 72.8878 114.251C73.2994 114.059 73.4054 113.466 73.1909 113.099L73.1934 113.103Z" fill="#1A4A59"/>
<path id="Vector_37" d="M106.656 140.123C106.077 138.687 105.21 137.428 103.97 136.485C102.491 135.356 100.665 134.886 98.9055 134.376C92.5323 132.531 86.6397 129.134 81.8093 124.588C79.1008 122.041 76.7373 119.151 74.7978 115.978C74.2334 115.055 72.7769 115.9 73.3437 116.828C76.8285 122.524 81.6417 127.37 87.2755 130.949C90.09 132.738 93.1139 134.201 96.2635 135.3C97.9123 135.876 99.6399 136.236 101.259 136.884C102.634 137.433 103.788 138.337 104.547 139.616C106.232 142.459 106.028 146.134 105.796 149.305C105.764 149.758 106.208 150.147 106.639 150.147C107.122 150.147 107.447 149.761 107.482 149.305C107.704 146.275 107.815 142.993 106.656 140.123Z" fill="#1A4A59"/>
<path id="Vector_38" d="M161.94 116.442C159.185 121.699 154.909 126.022 149.871 129.126C147.343 130.683 144.637 131.944 141.815 132.871C140.26 133.381 138.663 133.79 137.196 134.534C135.74 135.273 134.54 136.394 133.724 137.808C131.661 141.382 132.243 145.6 132.849 149.48C132.92 149.928 133.482 150.179 133.884 150.069C134.365 149.938 134.542 149.485 134.473 149.034C133.96 145.767 133.396 142.141 134.961 139.059C135.641 137.719 136.649 136.706 137.985 136.019C139.372 135.305 140.913 134.943 142.387 134.452C148.015 132.585 153.265 129.471 157.474 125.281C159.83 122.933 161.854 120.24 163.396 117.294C163.899 116.336 162.445 115.483 161.942 116.444L161.94 116.442Z" fill="#1A4A59"/>
</g>
</g>
<g id="Group_12">
<path id="Vector_39" d="M144.513 205.931H187.965C185.316 191.648 181.587 177.446 172.867 166C164.195 154.614 148.284 147.098 134.098 145.233C140.777 161.063 143.905 178.483 144.319 195.671C144.4 199.09 144.464 202.512 144.513 205.931Z" fill="white"/>
<path id="Vector_40" d="M137.288 156.922C138.485 160.829 139.491 164.793 140.321 168.794C140.735 170.789 141.105 172.792 141.433 174.802C141.763 176.83 142.029 178.719 142.268 180.705C142.751 184.743 143.074 188.8 143.242 192.862C143.422 197.186 143.466 201.519 143.53 205.845C143.53 205.875 143.53 205.904 143.53 205.931H145.502C145.45 202.071 145.391 198.211 145.268 194.353C145.137 190.271 144.851 186.194 144.405 182.136C143.952 178.02 143.338 173.918 142.542 169.853C141.758 165.842 140.799 161.864 139.651 157.942C138.512 154.052 137.186 150.214 135.663 146.457C135.75 146.472 135.836 146.484 135.922 146.499C136.595 146.612 137.265 146.738 137.933 146.873C139.262 147.142 140.583 147.455 141.894 147.81C144.573 148.531 147.21 149.421 149.78 150.465C149.93 150.527 150.081 150.588 150.231 150.65C150.305 150.68 150.379 150.712 150.453 150.744C150.48 150.756 150.623 150.815 150.625 150.818C150.956 150.958 151.283 151.101 151.611 151.249C152.252 151.534 152.888 151.83 153.519 152.135C154.795 152.754 156.05 153.412 157.282 154.114C158.492 154.803 159.68 155.533 160.841 156.304C161.417 156.686 161.984 157.08 162.546 157.484C162.82 157.681 163.091 157.878 163.359 158.08C163.488 158.176 163.616 158.272 163.741 158.368C163.805 158.417 163.87 158.467 163.934 158.516C163.956 158.533 164.057 158.612 164.072 158.624C166.206 160.292 168.214 162.125 170.031 164.135C170.472 164.623 170.903 165.123 171.32 165.633C171.522 165.879 171.721 166.131 171.919 166.382C171.928 166.394 171.931 166.399 171.936 166.404C171.943 166.414 171.948 166.421 171.958 166.434C172.02 166.515 172.081 166.594 172.143 166.675C172.271 166.845 172.399 167.015 172.525 167.188C173.427 168.409 174.277 169.668 175.081 170.959C176.687 173.541 178.092 176.246 179.327 179.025C180.5 181.666 181.582 184.587 182.504 187.462C184.391 193.362 185.737 199.42 186.881 205.503C186.908 205.648 186.935 205.793 186.962 205.939H188.958C187.898 200.194 186.676 194.474 185.003 188.874C183.223 182.917 180.926 177.079 177.814 171.686C176.288 169.043 174.57 166.49 172.626 164.133C170.896 162.036 168.951 160.117 166.871 158.368C162.499 154.698 157.558 151.731 152.338 149.431C147.19 147.162 141.773 145.479 136.215 144.565C135.511 144.449 134.803 144.348 134.096 144.255C133.507 144.176 132.916 144.954 133.145 145.501C134.72 149.236 136.095 153.054 137.283 156.929L137.288 156.922Z" fill="#1A4A59"/>
</g>
<g id="Group_13">
<path id="Vector_41" d="M94.9943 205.931C95.051 202.509 95.1175 199.09 95.1989 195.671C95.6129 178.483 98.4939 161.063 105.173 145.233C90.987 147.098 75.0763 154.614 66.4037 166C57.6843 177.446 53.9555 191.645 51.3062 205.931H94.9943Z" fill="white"/>
<path id="Vector_42" d="M52.3068 205.931C53.332 200.433 54.515 194.959 56.1046 189.596C57.8519 183.703 60.0034 178.18 63.052 172.856C63.8037 171.543 64.6046 170.255 65.4549 169.001C65.8911 168.355 66.3421 167.72 66.8054 167.094C66.9114 166.951 67.0174 166.808 67.1233 166.668C67.185 166.586 67.2466 166.505 67.3082 166.426C67.3156 166.416 67.3205 166.412 67.3254 166.404C67.5399 166.131 67.7567 165.857 67.9761 165.589C69.6815 163.512 71.5939 161.61 73.6444 159.876C74.1767 159.425 74.7214 158.987 75.2685 158.558C75.2759 158.55 75.3055 158.528 75.3252 158.514C75.3917 158.462 75.4583 158.413 75.5224 158.361C75.6505 158.265 75.7762 158.169 75.9043 158.073C76.1853 157.861 76.4712 157.654 76.7571 157.449C77.8957 156.631 79.0663 155.858 80.2616 155.124C82.6645 153.651 85.1684 152.347 87.7413 151.202C88.0395 151.069 88.3377 150.938 88.6384 150.81C88.6409 150.81 88.7887 150.746 88.8134 150.736C88.8725 150.712 88.9292 150.687 88.9883 150.662C89.1683 150.588 89.3506 150.512 89.5305 150.441C90.1787 150.177 90.8293 149.926 91.4849 149.682C92.7861 149.199 94.1046 148.758 95.433 148.356C98.0552 147.563 100.729 146.93 103.433 146.479C103.489 146.469 103.546 146.462 103.603 146.452C102.279 149.729 101.111 153.067 100.093 156.452C98.9178 160.359 97.9419 164.323 97.1434 168.323C96.3326 172.381 95.7066 176.475 95.2358 180.587C94.7701 184.644 94.4645 188.721 94.2993 192.801C94.1244 197.124 94.0726 201.453 94.0036 205.779C94.0036 205.828 94.0036 205.877 94.0036 205.929H95.9752C96.0343 202.088 96.0984 198.245 96.2167 194.407C96.3449 190.327 96.611 186.25 97.0349 182.19C97.4539 178.165 98.0133 174.28 98.7749 170.26C99.529 166.269 100.458 162.31 101.579 158.408C102.703 154.496 104.022 150.64 105.552 146.868C105.74 146.408 105.929 145.95 106.122 145.491C106.351 144.944 105.762 144.166 105.17 144.245C99.6079 144.981 94.1638 146.445 88.9662 148.558C83.6084 150.736 78.5241 153.552 73.9525 157.104C71.7862 158.785 69.748 160.632 67.9046 162.665C65.9133 164.857 64.166 167.271 62.5961 169.779C59.2937 175.049 56.8316 180.818 54.929 186.728C53.0141 192.675 51.6513 198.785 50.4954 204.919C50.4313 205.256 50.3722 205.594 50.3081 205.931H52.3068ZM67.3427 166.38C67.3673 166.348 67.3895 166.318 67.3427 166.38V166.38Z" fill="#1A4A59"/>
</g>
<g id="Group_14">
<g id="Group_15">
<path id="Vector_43" d="M101.902 199.53C105.614 195.819 105.614 189.803 101.902 186.092C98.1894 182.381 92.1708 182.381 88.4587 186.092C84.7465 189.803 84.7465 195.819 88.4587 199.53C92.1708 203.24 98.1894 203.24 101.902 199.53Z" fill="#B3B3B3"/>
<path id="Vector_44" d="M95.1816 200.127C91.1472 200.127 87.8645 196.846 87.8645 192.813C87.8645 188.78 91.1472 185.499 95.1816 185.499C99.216 185.499 102.499 188.78 102.499 192.813C102.499 196.846 99.216 200.127 95.1816 200.127Z" fill="#CCCCCC"/>
<path id="Vector_45" d="M98.2507 195.88C99.9465 194.185 99.9465 191.437 98.2507 189.742C96.5549 188.046 93.8054 188.046 92.1096 189.742C90.4137 191.437 90.4137 194.185 92.1096 195.88C93.8054 197.575 96.5549 197.575 98.2507 195.88Z" fill="#1A4A59"/>
</g>
<path id="Vector_46" d="M106.018 144.223C103.366 144.284 100.862 145.679 99.1544 147.733C96.9955 150.332 96.1354 153.673 95.64 156.949C94.5334 164.273 94.2032 171.706 94.1046 179.104C94.0479 183.274 94.075 187.448 94.1022 191.618C94.1071 192.197 94.6098 192.754 95.2112 192.727C95.8101 192.7 96.3251 192.239 96.3202 191.618C96.2734 184.412 96.229 177.202 96.6061 170.003C96.7959 166.409 97.0891 162.82 97.5426 159.25C97.6387 158.491 97.7176 157.888 97.8605 157.013C97.9887 156.222 98.139 155.434 98.3263 154.656C98.5136 153.882 98.7379 153.118 99.0164 152.372C99.0706 152.227 99.1297 152.081 99.1889 151.936C99.2086 151.892 99.2628 151.766 99.2653 151.759C99.2949 151.695 99.322 151.63 99.3515 151.566C99.529 151.185 99.7261 150.81 99.9405 150.445C100.133 150.12 100.342 149.805 100.567 149.5C100.599 149.46 100.653 149.386 100.663 149.374C100.744 149.275 100.825 149.177 100.909 149.081C101.035 148.938 101.165 148.797 101.301 148.659C101.572 148.386 101.858 148.132 102.156 147.891C102.171 147.879 102.181 147.869 102.193 147.861C102.205 147.854 102.218 147.844 102.237 147.832C102.329 147.768 102.417 147.701 102.511 147.64C102.681 147.524 102.856 147.413 103.033 147.309C103.196 147.213 103.364 147.125 103.531 147.038C103.615 146.997 103.701 146.955 103.785 146.918C103.812 146.905 103.901 146.871 103.938 146.854C104.29 146.721 104.648 146.605 105.017 146.521C105.077 146.509 105.138 146.494 105.2 146.484C105.232 146.477 105.394 146.455 105.446 146.445C105.601 146.428 105.757 146.413 105.912 146.408C105.947 146.408 105.981 146.408 106.018 146.408V144.22V144.223Z" fill="#1A4A59"/>
</g>
<g id="Group_16">
<g id="Group_17">
<path id="Vector_47" d="M132.221 205.931C131.947 202.571 131.755 200.061 131.75 199.997C131.713 199.529 131.309 199.179 130.838 199.213C130.37 199.25 130.02 199.657 130.054 200.125C130.059 200.189 130.247 202.633 130.515 205.929H132.221V205.931Z" fill="#A2A9AE"/>
<path id="Vector_48" d="M155.283 205.931C155.636 202.576 155.887 200.076 155.894 200.009C155.941 199.543 155.601 199.127 155.133 199.078C154.665 199.031 154.251 199.371 154.204 199.839C154.196 199.906 153.938 202.492 153.575 205.929H155.283V205.931Z" fill="#A2A9AE"/>
<path id="Vector_49" d="M132.058 200.906L129.559 200.876L129.662 192.005C129.749 184.627 135.826 178.695 143.207 178.783C150.588 178.87 156.523 184.942 156.434 192.32L156.331 201.068L153.832 201.039L153.935 192.291C154.007 186.29 149.179 181.35 143.178 181.281C137.174 181.21 132.233 186.036 132.164 192.035L132.06 200.906H132.058Z" fill="#1A4A59"/>
</g>
<path id="Vector_50" d="M144.07 179.786C143.954 174.098 143.841 168.409 143.725 162.724C143.503 157.59 144.26 151.751 141.088 147.341C139.486 145.243 137.034 143.624 134.293 143.831C133.65 143.88 133.026 144.363 133.058 145.065C133.086 145.693 133.603 146.351 134.293 146.299C134.658 146.27 135.025 146.275 135.39 146.322C135.111 146.287 135.452 146.339 135.548 146.361C135.789 146.413 136.026 146.482 136.26 146.563C136.349 146.595 136.607 146.701 136.381 146.602C136.841 146.802 137.275 147.058 137.682 147.351C137.724 147.381 137.867 147.494 137.674 147.341C138.185 147.743 138.645 148.209 139.052 148.716C141.591 152.037 141.1 157.671 141.248 162.315C141.366 168.138 141.482 173.962 141.6 179.788C141.613 180.434 142.16 181.052 142.835 181.023C143.493 180.993 144.085 180.481 144.07 179.788V179.786Z" fill="#1A4A59"/>
</g>
</g>
<g id="Group_18">
<g id="Group_19">
<path id="Vector_51" d="M16.9733 155.969C16.8501 152.907 14.3437 150.443 11.6796 148.864C9.0155 147.285 6.00388 146.22 3.67001 144.196C2.92326 143.55 2.24306 142.79 1.90296 141.869C1.56286 140.948 1.61462 139.845 2.22828 139.075C2.44022 138.807 2.72857 138.596 3.04895 138.462C2.7754 138.287 2.51416 138.095 2.26525 137.884C0.981243 136.798 0.108811 135.078 0.517918 133.462C0.845695 132.167 1.94733 131.156 3.20668 130.663C3.94357 130.374 4.72727 130.242 5.51838 130.211C4.53012 129.331 3.71437 128.313 3.4901 127.047C3.21901 125.509 3.99778 123.84 5.36065 123.046C6.26019 122.521 7.37414 122.397 8.38459 122.657C11.9581 120.298 16.3203 119.092 20.6159 119.355C23.6398 119.542 26.8905 120.633 28.4061 123.221C29.493 125.079 29.4831 127.346 29.4437 129.492C29.3426 134.852 27.9625 140.336 29.1406 145.569C29.6975 148.048 16.9733 155.971 16.9733 155.971V155.969Z" fill="white"/>
<path id="Vector_52" d="M20.2881 132.563C18.2549 130.471 15.4676 129.149 12.5373 128.906C11.7191 128.838 10.7357 128.862 10.3759 129.74C10.0876 130.442 10.4449 131.163 10.8269 131.751C11.7289 133.141 12.7813 134.465 13.3136 136.052C13.8164 137.556 13.9544 139.145 13.7104 140.71C13.4713 142.236 12.7049 143.728 13.4072 145.251C13.6882 145.861 14.2205 146.4 14.8785 146.604C15.6697 146.85 16.4755 146.587 17.0917 146.077C17.6979 145.577 18.0799 144.872 18.4077 144.177C18.7429 143.463 19.0214 142.724 19.2506 141.971C19.773 140.255 20.0614 138.477 20.3349 136.708C20.4976 135.654 20.5986 132.879 20.2906 132.563H20.2881Z" fill="#EED0C2"/>
<path id="Vector_53" d="M9.49362 125.169C7.53188 118.825 6.15423 110.877 4.19249 104.536C3.87211 103.501 3.54926 102.419 3.7267 101.35C3.90415 100.281 4.74947 99.2389 5.84617 99.2049C7.26079 99.1612 8.1554 100.646 8.71977 101.924C11.5983 108.443 14.1663 115.095 16.4139 121.853L9.49116 125.172L9.49362 125.169Z" fill="white"/>
<path id="Vector_54" d="M27.8097 139.906C27.7161 141.813 27.9847 143.737 28.6181 145.543C28.7463 145.909 29.0716 146.179 29.4881 146.089C29.838 146.012 30.1707 145.601 30.0426 145.232C29.4486 143.538 29.18 141.769 29.2663 139.981C29.3106 139.055 27.8541 138.985 27.8097 139.908V139.906Z" fill="#1A4A59"/>
<path id="Vector_55" d="M27.3735 120.271C26.0106 119.313 24.2781 118.927 22.6318 118.835C20.4434 118.711 18.3017 119.143 16.2241 119.804C16.2858 119.673 16.303 119.525 16.2512 119.386C15.0929 116.269 13.9371 113.152 12.7788 110.032C12.2046 108.484 11.6303 106.936 11.0561 105.389C10.4843 103.851 9.94954 102.293 9.33341 100.772C8.8134 99.4892 7.91633 98.1868 6.45242 97.888C4.91211 97.5721 3.57389 98.5975 3.02431 99.9654C2.46487 101.355 2.69407 103.024 2.93559 104.458C3.19929 106.028 3.65275 107.558 4.11115 109.082C5.18567 112.654 6.26019 116.225 7.33471 119.795C7.44561 120.166 7.8005 120.429 8.20467 120.341C8.56942 120.261 8.87009 119.858 8.75918 119.484C7.8695 116.529 6.97982 113.574 6.0926 110.62C5.65392 109.164 5.19306 107.711 4.81353 106.239C4.45864 104.866 4.15305 103.44 4.15305 102.016C4.15305 101 4.43646 99.4649 5.68843 99.2729C6.91082 99.0858 7.6477 100.476 8.0223 101.387C8.58667 102.762 9.06725 104.176 9.58479 105.568C10.1171 107.004 10.6495 108.44 11.1842 109.874L14.8317 119.697C14.9032 119.889 15.0239 120.055 15.1841 120.154C14.1096 120.538 13.0523 120.968 12.0172 121.403C11.2606 121.721 10.4153 122.001 9.8337 122.601C9.35806 123.092 9.09682 123.721 9.03274 124.392C8.90213 125.75 9.60697 127.149 10.6618 127.995C12.0813 129.132 13.9396 129.414 15.6647 129.825C17.1631 130.182 18.8685 130.75 19.5832 132.218C19.9899 133.051 21.2788 132.378 20.8722 131.545C20.224 130.213 18.9326 129.394 17.5698 128.889C16.197 128.379 14.7257 128.223 13.3358 127.769C12.17 127.388 11.0857 126.748 10.6593 125.633C10.4671 125.135 10.4129 124.613 10.5509 124.166C10.7086 123.658 11.1029 123.376 11.65 123.126C13.1632 122.433 14.7307 121.809 16.3104 121.289C17.8729 120.774 19.5068 120.358 21.1581 120.271C22.691 120.191 24.3274 120.334 25.7346 120.985C27.0753 121.607 27.9527 122.71 28.3199 124.12C28.7857 125.903 28.6477 127.82 28.5688 129.64C28.4801 131.678 28.3026 133.71 28.0365 135.734C27.9872 136.118 28.3568 136.47 28.729 136.487C29.148 136.506 29.4437 136.19 29.493 135.804C29.7444 133.872 29.9193 131.934 30.013 129.987C30.0992 128.177 30.2028 126.306 29.8947 124.511C29.6039 122.822 28.8152 121.277 27.376 120.268L27.3735 120.271Z" fill="#1A4A59"/>
<path id="Vector_56" d="M16.6554 130.694C16.2241 129.873 14.9328 130.544 15.3665 131.367C15.6031 131.819 14.6173 131.963 14.3462 131.965C13.5822 131.972 12.8059 131.88 12.0542 131.749C10.5287 131.479 9.04508 130.991 7.59596 130.459C6.33413 129.997 4.84804 129.557 4.14073 128.325C3.49257 127.198 3.58376 125.849 4.32803 124.793C5.2744 123.444 7.01187 123.116 8.56943 123.101C9.50594 123.092 9.58234 121.656 8.64336 121.665C6.73092 121.685 4.71496 122.1 3.42356 123.609C2.24307 124.989 1.92515 126.863 2.62507 128.537C2.86166 129.1 3.19683 129.562 3.59854 129.946C2.10999 130.366 0.86049 131.44 0.325694 132.932C-0.320003 134.735 0.229579 136.715 1.57519 138.056C1.78714 138.268 2.01634 138.46 2.25293 138.642C1.42979 139.267 1.05518 140.411 1.23756 141.439C1.51604 143.008 2.9282 144.111 4.13087 145.027C5.37052 145.973 6.70874 146.796 8.12336 147.462C9.44186 148.084 11.0955 148.917 12.5964 148.565C14.0973 148.215 15.2852 146.743 15.1915 145.207C15.1669 144.821 14.9254 144.473 14.499 144.454C14.1392 144.437 13.7104 144.746 13.735 145.137C13.7892 145.997 13.2717 146.842 12.4239 147.124C11.894 147.302 11.3346 147.17 10.8195 147.005C10.2256 146.816 9.64395 146.58 9.07712 146.327C7.91634 145.81 6.81224 145.161 5.76976 144.439C4.81847 143.781 3.72423 143.042 3.06868 142.075C2.75815 141.616 2.5536 141.086 2.68422 140.532C2.78772 140.093 3.05143 139.718 3.48764 139.629C3.56158 139.614 3.62565 139.587 3.68234 139.558C4.52026 140.003 5.41488 140.355 6.29224 140.685C7.3914 141.099 8.49056 141.507 9.58726 141.92C10.541 142.277 11.5318 142.661 12.5668 142.683C13.735 142.707 14.7873 142.241 15.5094 141.332C16.1576 140.518 16.4164 139.437 16.1921 138.423C15.99 137.52 14.568 137.831 14.7676 138.734C15.0609 140.049 13.9815 141.271 12.6408 141.244C11.7807 141.227 10.9575 140.894 10.164 140.598C9.23977 140.253 8.31805 139.908 7.39633 139.563C4.93183 138.642 1.10694 137.32 1.54069 134.043C1.75264 132.436 3.21162 131.209 4.84065 131.183C4.99591 131.183 5.14378 131.134 5.26947 131.059C5.75744 131.297 6.27252 131.499 6.7876 131.691C8.57682 132.359 10.4005 132.944 12.2982 133.233C13.3407 133.391 14.5631 133.576 15.5711 133.185C16.5593 132.801 17.1754 131.674 16.6579 130.692L16.6554 130.694Z" fill="#1A4A59"/>
<path id="Vector_57" d="M12.2095 149.928C13.9051 151.476 15.2285 153.415 15.9752 155.577C16.1009 155.944 16.4312 156.214 16.8452 156.124C17.1976 156.046 17.5254 155.636 17.3997 155.266C16.5692 152.861 15.1767 150.679 13.2815 148.951C12.9932 148.689 12.5545 148.636 12.2514 148.913C11.9803 149.16 11.9211 149.663 12.212 149.928H12.2095Z" fill="#1A4A59"/>
</g>
<path id="Vector_58" d="M10.2724 154.744C10.2724 154.744 16.9044 176.201 23.3909 188.661C29.8775 201.121 34.8163 205.859 47.1782 205.511C61.524 205.105 61.8962 204.452 61.8962 204.452L69.6125 178.062L36.4355 144.583L10.2724 154.744Z" fill="white"/>
<path id="Vector_59" d="M41.4753 204.649C40.2603 204.483 39.0651 204.192 37.9191 203.762C37.7663 203.706 37.6184 203.643 37.4656 203.584C37.3522 203.541 37.6381 203.66 37.5248 203.609C37.4804 203.589 37.436 203.57 37.3892 203.55C37.3079 203.514 37.2266 203.48 37.1452 203.443C36.8199 203.295 36.4995 203.14 36.1841 202.972C35.4792 202.598 34.799 202.173 34.1509 201.709C33.9956 201.597 33.8428 201.485 33.69 201.368C33.8625 201.5 33.6013 201.298 33.5569 201.264C33.4583 201.186 33.3622 201.108 33.2661 201.031C32.9137 200.744 32.5711 200.445 32.2384 200.139C31.4892 199.449 30.7844 198.713 30.1189 197.942C29.9464 197.743 29.7739 197.539 29.6063 197.335C29.525 197.235 29.4437 197.138 29.3648 197.039C29.3254 196.988 29.2835 196.937 29.2441 196.888C29.249 196.893 29.0641 196.66 29.1455 196.764C28.7684 196.278 28.4037 195.782 28.0488 195.279C27.2848 194.191 26.5725 193.063 25.9047 191.914C23.7827 188.27 21.9073 184.484 20.1698 180.65C18.2869 176.497 16.5642 172.233 15.0313 167.848C13.6364 163.853 12.3918 159.786 11.5564 155.638C11.4677 155.191 11.3814 154.744 11.3025 154.294C11.0881 154.669 10.8712 155.043 10.6568 155.415C12.9168 154.574 15.1669 153.702 17.4145 152.827C20.0244 151.809 22.6293 150.784 25.2368 149.758C27.5362 148.854 29.8331 147.95 32.1398 147.066C33.4978 146.544 34.8582 145.985 36.2531 145.557C36.327 145.535 36.4009 145.511 36.4749 145.494C36.502 145.487 36.5316 145.482 36.5587 145.475C36.709 145.428 36.4281 145.494 36.3886 145.494C36.4009 145.494 36.4133 145.494 36.4256 145.494C36.2605 145.494 36.0978 145.421 35.9918 145.382C36.0214 145.394 36.0461 145.421 36.0732 145.438C36.0387 145.416 35.8292 145.241 35.9524 145.348C35.9746 145.368 35.9992 145.385 36.0214 145.404C36.0806 145.453 36.1397 145.504 36.1964 145.555C36.3517 145.691 36.5045 145.829 36.6548 145.97C37.7638 146.991 38.8433 148.043 39.9252 149.092C41.5715 150.689 43.2103 152.292 44.8468 153.898C46.7863 155.801 48.7234 157.706 50.663 159.613C52.642 161.559 54.621 163.506 56.6024 165.447C58.3719 167.182 60.1439 168.914 61.9233 170.637C62.2905 170.992 62.6577 171.346 63.0249 171.701C63.3822 172.046 63.9762 172.051 64.3311 171.701C64.686 171.351 64.6884 170.758 64.3311 170.413C62.633 168.776 60.9449 167.128 59.2567 165.479C57.2826 163.547 55.311 161.61 53.3419 159.674C51.353 157.72 49.3667 155.764 47.3753 153.811C45.6428 152.11 43.9103 150.412 42.1703 148.718C40.943 147.523 39.7132 146.327 38.4637 145.154C38.1236 144.833 37.7835 144.512 37.4286 144.206C37.1255 143.944 36.8224 143.664 36.3886 143.674C35.9746 143.686 35.5507 143.868 35.1662 144.002C34.4712 144.243 33.7837 144.503 33.0961 144.76C30.9495 145.569 28.8152 146.408 26.681 147.246C24.0883 148.261 21.4957 149.284 18.903 150.3C16.4854 151.248 14.0677 152.19 11.6402 153.109C11.1497 153.293 10.6593 153.478 10.1664 153.663C9.66364 153.85 9.42952 154.258 9.5207 154.783C10.2403 158.892 11.4184 162.92 12.7467 166.873C14.255 171.361 16.0023 175.771 17.9148 180.106C19.6695 184.081 21.5696 188.002 23.7088 191.793C25.9219 195.717 28.5417 199.582 32.1053 202.442C34.4417 204.318 37.1452 205.715 40.1223 206.272C40.4082 206.325 40.6941 206.371 40.9824 206.41C41.4581 206.476 41.9978 206.296 42.1186 205.773C42.2172 205.343 41.9855 204.724 41.4729 204.653L41.4753 204.649Z" fill="#1A4A59"/>
</g>
</g>
</svg>
